<svg width="51" height="52" viewBox="0 0 51 52" fill="none" xmlns="http://www.w3.org/2000/svg">
<path fill-rule="evenodd" clip-rule="evenodd" d="M25.2668 1L37.7902 19.4143H37.7932L37.8997 19.5708L37.9005 19.5765L50 37.3676L41.2261 42.168L41.2265 42.1706L41.1618 42.206L41.1584 42.205L25.2663 50.9L9.78425 42.1467L9.77776 42.1486L9.54405 42.0168L9.54485 42.0113L1 37.1802L12.8121 19.5691L12.8131 19.5625L12.9123 19.4143H12.916L25.2668 1ZM12.6472 20.7021L1.89779 36.7287L10.5765 34.9253L12.6472 20.7021ZM10.5003 35.4488L2.05118 37.2045L9.62152 41.4847L10.5003 35.4488ZM10.2078 40.8787L11.0138 35.3421L14.5741 34.6022L10.2078 40.8787ZM10.4426 41.9489L25.0219 50.1918V37.5689L10.4426 41.9489ZM25.5146 37.5184V50.1985L40.4904 42.0049L25.5146 37.5184ZM41.149 41.6445L48.9344 37.385L40.2517 35.5488L41.149 41.6445ZM40.1745 35.0244L49.0913 36.9101L38.0656 20.698L40.1745 35.0244ZM37.6621 21.3412L39.6604 34.9157L35.7542 34.0897L37.6621 21.3412ZM37.1925 19.4143L25.5146 2.24307V19.4143H37.1925ZM25.0219 19.4143H13.511L25.0219 2.25231V19.4143ZM24.794 19.9115H13.3331L15.3342 33.5096L24.794 19.9115ZM14.9118 34.0244L11.09 34.8185L13.0488 21.3643L14.9118 34.0244ZM15.2779 34.456L10.4219 41.4363L24.4873 37.2107L15.2864 34.4542L15.2779 34.456ZM16.3087 34.2418L25.0219 36.8521V32.4312L16.3087 34.2418ZM25.5146 32.4323L34.2463 34.2788L25.5146 36.9021V32.4323ZM26.2165 37.21L40.3191 41.4349L35.4526 34.5339L35.2598 34.4932L26.2165 37.21ZM36.1634 34.6842L39.7375 35.4401L40.5398 40.8903L36.1634 34.6842ZM35.3413 33.5185L25.7457 19.9115H37.3778L35.3413 33.5185ZM25.0219 20.4495V31.9235L15.6908 33.8625L25.0219 20.4495ZM25.5146 20.4413V31.9242L35.0315 33.9368L25.5146 20.4413Z" fill="white" stroke="white" stroke-width="0.5" stroke-miterlimit="10"/>
</svg>
