<svg width="741" height="747" viewBox="0 0 741 747" fill="none" xmlns="http://www.w3.org/2000/svg">
<mask id="mask0" mask-type="alpha" maskUnits="userSpaceOnUse" x="0" y="0" width="741" height="747">
<path fill-rule="evenodd" clip-rule="evenodd" d="M366.52 0L0 541.492L129.386 613.984L130.997 614.884L366.517 746.834L740.09 544.301L366.52 0ZM6.02292 538.491L177.747 284.786L144.673 509.941L6.02292 538.491ZM7.05256 541.653L144.16 513.421L129.903 610.481L7.05256 541.653ZM147.607 512.712L133.834 606.457L208.443 500.184L147.607 512.712ZM364.88 742.129L135.416 613.57L364.88 545.258V742.129ZM368.186 742.17V544.5L603.786 614.439L368.186 742.17ZM606.685 612.867L592.176 514.918L732.94 544.417L606.685 612.867ZM588.726 514.195L602.444 606.528L527.622 501.39L588.726 514.195ZM600.969 610.155L522.855 500.391L518.594 499.499L373.605 542.661L600.969 610.155ZM588.209 510.71L524.798 497.422L523.984 496.278L555.277 289.053L588.209 510.71ZM553.369 279.536L521.228 492.404L369.738 279.536H553.369ZM552.098 276.231H368.186V8.2678L552.098 276.231ZM183.538 276.231L364.88 8.31944V276.231H183.538ZM182.353 279.536H363.351L213.952 492.334L182.353 279.536ZM148.117 509.231L211.193 496.243L180.442 289.18L148.117 509.231ZM135.27 610.164L213.165 499.212L214.621 498.912L362.008 542.666L135.27 610.164ZM364.88 540.07L221.476 497.5L364.88 467.971V540.07ZM368.186 540.826V467.979L511.796 498.074L368.186 540.826ZM518.452 496.092L519.559 495.763L368.186 283.056V464.602L518.452 496.092ZM364.88 464.597V283.107L215.934 495.267L364.88 464.597ZM733.992 541.26L557.988 284.816L591.657 511.433L733.992 541.26Z" fill="white"/>
</mask>
<g mask="url(#mask0)">
<g filter="url(#filter0_f)">
<rect x="-130.143" y="-106.7" width="963.28" height="963.28" fill="url(#paint0_linear)"/>
</g>
</g>
<defs>
<filter id="filter0_f" x="-139.143" y="-115.7" width="981.28" height="981.28" filterUnits="userSpaceOnUse" color-interpolation-filters="sRGB">
<feFlood flood-opacity="0" result="BackgroundImageFix"/>
<feBlend mode="normal" in="SourceGraphic" in2="BackgroundImageFix" result="shape"/>
<feGaussianBlur stdDeviation="4.5" result="effect1_foregroundBlur"/>
</filter>
<linearGradient id="paint0_linear" x1="150.002" y1="333" x2="625.015" y2="730.342" gradientUnits="userSpaceOnUse">
<stop stop-color="#FF0541" stop-opacity="0.64"/>
<stop offset="0.479167" stop-color="#0029FF"/>
</linearGradient>
</defs>
</svg>
